<svg width="103" height="145" viewBox="0 0 103 145" fill="none" xmlns="http://www.w3.org/2000/svg">
<path d="M48.996 142.245L48.9973 142.246C49.6507 143.106 50.6626 143.608 51.7424 143.608C52.8223 143.608 53.8342 143.106 54.4876 142.246L54.4888 142.245C55.4625 140.952 67.3864 125.101 79.069 106.234C84.9099 96.801 90.6967 86.6042 95.0248 77.0899C99.3452 67.5926 102.242 58.7117 102.242 51.9316C102.242 24.0849 79.5891 1.43164 51.7424 1.43164C23.8957 1.43164 1.24243 24.0849 1.24243 51.9316C1.24243 58.7117 4.1397 67.5926 8.4601 77.0899C12.7882 86.6042 18.5749 96.801 24.4159 106.234C36.0984 125.101 48.0224 140.952 48.996 142.245ZM76.9122 96.5163C67.3454 112.568 56.6614 127.617 51.7423 134.372C46.8233 127.62 36.1394 112.574 26.5726 96.5228C21.6535 88.2696 17.0356 79.7603 13.6489 71.9823C10.2555 64.1889 8.1247 57.1879 8.1247 51.9316C8.1247 27.8782 27.689 8.31391 51.7424 8.31391C75.7958 8.31391 95.3602 27.8782 95.3602 51.9316C95.3602 57.1849 93.2294 64.1841 89.836 71.9765C86.4493 79.7536 81.8313 88.2628 76.9122 96.5163Z" fill="#9F9C9C" stroke="#9F9C9C"/>
<path d="M51.7424 24.9609C36.8721 24.9609 24.7717 37.0613 24.7717 51.9316C24.7717 66.8019 36.8721 78.9022 51.7424 78.9022C66.6127 78.9022 78.713 66.8019 78.713 51.9316C78.713 37.0613 66.6127 24.9609 51.7424 24.9609ZM51.7424 72.0199C40.6656 72.0199 31.654 63.0086 31.654 51.9316C31.654 40.8548 40.6654 31.8432 51.7424 31.8432C62.8194 31.8432 71.8307 40.8546 71.8307 51.9316C71.8307 63.0086 62.8191 72.0199 51.7424 72.0199Z" fill="#9F9C9C" stroke="#9F9C9C"/>
</svg>
