<svg width="155" height="155" viewBox="0 0 155 155" fill="none" xmlns="http://www.w3.org/2000/svg">
<path fill-rule="evenodd" clip-rule="evenodd" d="M149.038 2.66792C150.024 2.33819 151.11 2.5924 151.846 3.3279C152.581 4.06341 152.837 5.15102 152.506 6.13637L103.985 150.659C103.683 151.558 102.938 152.236 102.014 152.453C101.914 152.477 101.814 152.495 101.713 152.507C101.605 152.52 101.496 152.526 101.388 152.526C100.67 152.526 99.9709 152.244 99.4512 151.724L69.9215 122.195L38.7992 120.25C36.7236 120.25 35.8985 119.904 35.5743 119.34C35.2501 118.776 34.9251 118.251 34.9251 116.376L32.9799 85.2534L3.45067 55.7246C2.78017 55.054 2.50438 54.084 2.72096 53.1611C2.9379 52.2378 3.61687 51.4925 4.51564 51.1908L149.038 2.66792ZM10.4503 54.9766L35.9717 80.4973L132.334 14.0553L10.4503 54.9766ZM141.12 22.8365L74.6781 119.203L100.199 144.724L141.12 22.8365ZM43.9645 115.083L69.751 116.695L130.591 28.4563L43.9645 115.083ZM40.0903 111.209L126.717 24.5829L38.479 85.4229L40.0903 111.209Z" fill="#9F9C9C" stroke="#9F9C9C" stroke-width="4"/>
</svg>
