<svg width="103" height="103" viewBox="0 0 103 103" fill="none" xmlns="http://www.w3.org/2000/svg">
<path d="M39.468 27.2134L39.468 27.2134L39.4656 27.2059C37.5823 21.4991 36.6223 15.5047 36.6223 9.39938C36.6223 4.77052 32.8564 1.00464 28.2275 1.00464H9.80636C5.1775 1.00464 1.41162 4.77052 1.41162 9.39938C1.41162 60.4597 42.9566 102.005 94.0169 102.005C98.6457 102.005 102.412 98.2388 102.412 93.6099V75.2415C102.412 70.6127 98.6457 66.8468 94.0169 66.8468C87.9016 66.8468 81.9137 65.8921 76.2346 64.0151C73.2837 62.9995 69.9281 63.7648 67.9395 65.7644L56.871 74.1235C44.192 67.3034 36.0247 59.1407 29.2871 46.5456L37.4169 35.7433C39.6302 33.5063 40.4194 30.2568 39.468 27.2134ZM96.149 93.1099H96.1485V93.6099C96.1485 94.7857 95.1888 95.7416 94.0169 95.7416C46.4087 95.7416 7.6747 57.0076 7.6747 9.39938C7.6747 8.22353 8.63441 7.26772 9.80636 7.26772H28.2275C29.3995 7.26772 30.3592 8.22353 30.3592 9.39938C30.3592 16.1712 31.4196 22.8226 33.4985 29.1304C33.7377 29.9063 33.5708 30.7374 32.7096 31.6315L32.6888 31.6531L32.6707 31.677L23.0917 44.3612L23.091 44.3621C22.3716 45.3193 22.2581 46.6029 22.8033 47.6688C30.6563 63.094 40.2115 72.6541 55.7453 80.612C56.8076 81.1645 58.1038 81.05 59.0612 80.3243L72.0192 70.5033L72.045 70.4837L72.0681 70.461C72.64 69.8976 73.4806 69.7018 74.239 69.953L74.2394 69.9531C80.5856 72.0492 87.2386 73.1099 94.0174 73.1099C95.1893 73.1099 96.149 74.0657 96.149 75.2415V93.1099Z" fill="#9F9C9C" stroke="#9F9C9C"/>
</svg>
