<svg width="503" height="504" viewBox="0 0 503 504" fill="none" xmlns="http://www.w3.org/2000/svg">
<path d="M440.125 503.915H62.875C28.168 503.915 0 475.747 0 441.04V63.79C0 29.083 28.168 0.915039 62.875 0.915039H440.125C474.832 0.915039 503 29.083 503 63.79V441.04C503 475.747 474.832 503.915 440.125 503.915Z" fill="#1DA1F2"/>
<path d="M193.152 380.177C311.734 380.177 376.621 281.84 376.621 196.708C376.621 193.941 376.621 191.175 376.496 188.408C389.071 179.354 400.011 167.911 408.688 154.959C397.119 160.114 384.669 163.51 371.591 165.144C384.921 157.222 395.107 144.521 400.011 129.431C387.562 136.851 373.729 142.132 359.016 145.024C347.196 132.449 330.471 124.653 311.986 124.653C276.399 124.653 247.476 153.575 247.476 189.163C247.476 194.193 248.105 199.097 249.111 203.875C195.541 201.235 148.008 175.456 116.193 136.473C110.66 146.03 107.516 157.096 107.516 168.917C107.516 191.3 118.96 211.043 136.187 222.612C125.624 222.235 115.69 219.343 107.013 214.564C107.013 214.816 107.013 215.067 107.013 215.444C107.013 246.63 129.271 272.786 158.697 278.697C153.289 280.206 147.631 280.96 141.72 280.96C137.571 280.96 133.547 280.583 129.648 279.828C137.822 305.481 161.715 324.092 189.883 324.595C167.751 341.949 139.96 352.26 109.78 352.26C104.624 352.26 99.4684 352.009 94.4384 351.38C122.858 369.488 156.81 380.177 193.152 380.177Z" fill="white"/>
</svg>
