<svg width="102" height="102" viewBox="0 0 102 102" fill="none" xmlns="http://www.w3.org/2000/svg">
<path d="M50.9999 0.794189C23.4305 0.794189 1 23.2247 1 50.7941C1 78.3635 23.4305 100.794 50.9999 100.794C78.5693 100.794 101 78.3635 101 50.7941C101 23.2247 78.5695 0.794189 50.9999 0.794189ZM50.9999 96.4462C25.826 96.4462 5.34776 75.968 5.34776 50.7941C5.34776 25.6202 25.826 5.14194 50.9999 5.14194C76.1738 5.14194 96.652 25.6202 96.652 50.7941C96.652 75.968 76.1738 96.4462 50.9999 96.4462Z" fill="#9F9C9C" stroke="#9F9C9C"/>
<path d="M50.9999 0.794189C35.1521 0.794189 22.739 22.7594 22.739 50.7941C22.739 78.8288 35.1521 100.794 50.9999 100.794C66.8477 100.794 79.2608 78.829 79.2608 50.7941C79.2608 22.7592 66.8477 0.794189 50.9999 0.794189ZM50.9999 96.4462C38.039 96.4462 27.087 75.5375 27.087 50.7941C27.087 26.0506 38.0392 5.14194 50.9999 5.14194C63.9607 5.14194 74.9129 26.0506 74.9129 50.7941C74.9129 75.5375 63.9609 96.4462 50.9999 96.4462Z" fill="#9F9C9C" stroke="#9F9C9C"/>
<path d="M98.826 48.6204H3.17398C1.97398 48.6204 1 49.5941 1 50.7941C1 51.9941 1.97398 52.9681 3.17398 52.9681H98.826C100.026 52.9681 101 51.9941 101 50.7941C101 49.5941 100.026 48.6204 98.826 48.6204Z" fill="#9F9C9C" stroke="#9F9C9C"/>
<path d="M91.0871 22.5334H10.9088C9.70884 22.5334 8.73486 23.5074 8.73486 24.7074C8.73486 25.9074 9.70884 26.8812 10.9088 26.8812H91.0913C92.2913 26.8812 93.2608 25.9072 93.2608 24.7072C93.2608 23.5072 92.2871 22.5334 91.0871 22.5334Z" fill="#9F9C9C" stroke="#9F9C9C"/>
<path d="M91.0871 74.7073H10.9088C9.70884 74.7073 8.73486 75.6813 8.73486 76.8813C8.73486 78.0813 9.70884 79.055 10.9088 79.055H91.0913C92.2913 79.055 93.2608 78.0811 93.2608 76.8811C93.2608 75.6811 92.2871 74.7073 91.0871 74.7073Z" fill="#9F9C9C" stroke="#9F9C9C"/>
<path d="M50.9999 0.794189C49.7999 0.794189 48.8259 1.76817 48.8259 2.96817V98.6202C48.8259 99.8202 49.7999 100.794 50.9999 100.794C52.1999 100.794 53.1739 99.8202 53.1739 98.6202V2.96817C53.1739 1.76817 52.1999 0.794189 50.9999 0.794189Z" fill="#9F9C9C" stroke="#9F9C9C"/>
</svg>
