<svg width="512" height="512" viewBox="0 0 512 512" fill="none" xmlns="http://www.w3.org/2000/svg">
<path d="M448 0H64C28.6933 0 0 28.6933 0 64V448C0 483.285 28.6933 512 64 512H448C483.285 512 512 483.285 512 448V64C512 28.6933 483.285 0 448 0Z" fill="#EC3638"/>
<path d="M218.147 311.6V200.832L315.501 256.218L218.147 311.6ZM434.7 165.98C430.416 149.848 417.794 137.146 401.769 132.835C372.721 125 256.242 125 256.242 125C256.242 125 139.762 125 110.715 132.835C94.6898 137.146 82.0676 149.848 77.7841 165.98C70 195.215 70 256.216 70 256.216C70 256.216 70 317.214 77.7841 346.452C82.0676 362.583 94.6898 375.286 110.715 379.599C139.762 387.432 256.242 387.432 256.242 387.432C256.242 387.432 372.721 387.432 401.769 379.599C417.794 375.286 430.416 362.583 434.7 346.452C442.484 317.214 442.484 256.216 442.484 256.216C442.484 256.216 442.484 195.215 434.7 165.98Z" fill="#FEFEFE"/>
</svg>
