<svg width="320" height="326" viewBox="0 0 320 326" fill="none" xmlns="http://www.w3.org/2000/svg">
<g opacity="0.6">
<path d="M0 325.574V302.617L17.385 290.352L86.9298 295.711L100.371 325.574H0Z" fill="#197278"/>
<path d="M46.3334 79.2146L42.7869 82.8961L8.93317 118.079C8.93317 118.079 8.15112 106.337 7.37325 92.513C6.60374 78.8139 5.84259 63.0653 5.84719 54.6672C5.85932 37.7958 13.0321 6.85791 17.3856 0.97671C21.7392 -4.90449 22.2536 18.8749 20.7146 31.9146C19.3805 43.2637 23.0859 72.4193 25.7582 83.1674C26.1555 84.7702 26.5323 85.964 26.8627 86.6277C26.8627 86.6277 26.879 85.1125 26.9171 82.5789C27.0839 71.3048 27.6573 39.8452 28.9119 31.9146C30.451 22.1974 34.5494 4.04462 38.1381 3.79C41.7217 3.53121 40.6971 34.2145 40.4424 41.1183C40.2584 46.1229 43.4368 63.8917 45.2017 73.2875C45.4652 74.7066 45.6989 75.938 45.8834 76.9022C46.1661 78.3589 46.3334 79.2146 46.3334 79.2146Z" fill="#E09F3E"/>
<path d="M96.5193 325.571H18.2701C18.2701 325.571 11.7266 269.897 14.0937 237.051C14.2234 235.244 14.3781 233.507 14.5663 231.854C14.7127 230.569 14.8544 229.312 14.997 228.081C15.9334 220.017 16.7954 213.097 17.4896 207.024C19.2921 191.167 19.9152 181.095 17.5147 171.515C14.0561 157.708 27.3761 87.1415 55.5551 88.1641C83.7342 89.1868 88.3471 117.311 82.1952 135.719C76.0475 154.126 65.2911 171.001 65.8013 187.368C65.8724 189.555 66.3329 193.425 67.0982 198.512C67.621 201.96 68.2813 205.971 69.0554 210.4C75.6795 248.317 90.5556 316.25 96.5193 325.571Z" fill="#E09F3E"/>
<path d="M63.1499 232.577L14.0938 237.051C14.2234 235.244 14.3781 233.507 14.5663 231.854C14.7127 230.569 14.8545 229.312 14.9971 228.081L63.1499 232.577Z" fill="#050505"/>
<path d="M69.0552 210.4L17.4897 207.023L67.0979 198.512C67.6207 201.96 68.2815 205.971 69.0552 210.4Z" fill="#050505"/>
<path d="M45.882 76.9022L42.7872 82.8961L8.93345 118.079C8.93345 118.079 8.15141 106.337 7.37354 92.5131L25.7581 83.1675C26.1554 84.7703 26.5322 85.9641 26.8626 86.6277C26.8626 86.6277 26.8789 85.1125 26.9169 82.5789L45.2011 73.2875C45.4638 74.7067 45.698 75.938 45.882 76.9022Z" fill="#050505"/>
<path d="M35.0612 167.168C42.7466 164.355 59.1418 154.383 51.7127 134.441C44.2832 114.498 40.0216 113.986 44.33 107.339C48.6384 100.691 57.5346 74.6119 53.5988 70.0096C49.6634 65.4074 36.8545 88.4188 28.9131 94.8104C20.9721 101.202 5.3452 116.543 5.85751 123.702C6.36982 130.861 18.5941 174.578 18.5941 174.578L35.0612 167.168Z" fill="#E09F3E"/>
<path d="M61.9688 69.4983C68.7865 69.3535 74.9045 78.0079 74.6105 91.7989C74.3169 105.59 70.7889 119.382 66.6725 120.849C62.5569 122.316 60.2638 89.9239 60.2638 89.9239C60.2638 89.9239 49.9147 92.3857 46.3867 96.7872C46.3863 96.7872 48.1503 69.7917 61.9688 69.4983Z" fill="#E09F3E"/>
<path d="M73.1406 77.7148C79.9587 77.57 86.0767 86.2244 85.7826 100.015C85.4886 113.807 81.9602 127.599 77.8446 129.065C73.729 130.532 71.4359 98.1404 71.4359 98.1404C71.4359 98.1404 67.0062 96.5063 63.4786 100.908C63.4782 100.908 59.3224 78.0078 73.1406 77.7148Z" fill="#E09F3E"/>
<path d="M84.2196 114.918C82.7517 122.436 80.4122 128.149 77.8444 129.065C73.7283 130.532 72.4888 109.298 72.4888 109.298" stroke="#050505" stroke-miterlimit="10"/>
<path d="M35.061 167.168C42.7465 164.355 59.1416 154.383 51.7125 134.441C44.283 114.498 40.0214 113.986 44.3298 107.339C48.6383 100.691 57.5344 74.612 53.5987 70.0097" stroke="#050505" stroke-miterlimit="10"/>
<path d="M72.1764 77.78C73.7902 81.4414 74.7291 86.1965 74.6099 91.7993C74.3163 105.591 70.7883 119.382 66.6719 120.849C62.5562 122.316 60.2632 89.9243 60.2632 89.9243" stroke="#050505" stroke-miterlimit="10"/>
<path d="M14.2192 197.594V207.309L69.8413 202.451V189.923L14.2192 197.594Z" fill="#5CC4CB"/>
<path d="M14.0544 214.128L12.3477 230.491L74.6193 234.241L76.2206 214.127C76.221 214.128 20.5429 214.81 14.0544 214.128Z" fill="white"/>
<path d="M14.0549 214.545L13.5781 218.909L76.1291 220.852L76.6397 213.71L14.0549 214.545Z" fill="#C44536"/>
<path d="M13.0059 224.184L75.0044 229.41L74.6197 234.241L12.3477 230.909L13.0059 224.184Z" fill="#197278"/>
<path d="M14.0938 200.771L69.8413 194.093" stroke="#050505" stroke-miterlimit="10"/>
<path d="M71.7934 111.955C71.7934 111.955 68.5272 109.777 67.4419 113.951C66.3567 118.125 66.672 120.849 66.672 120.849" stroke="#050505" stroke-miterlimit="10"/>
<path d="M78.3539 116.118C79.7813 115.262 81.1509 122.577 78.3539 126.751C78.3539 126.751 74.7385 118.286 78.3539 116.118Z" stroke="#050505" stroke-miterlimit="10"/>
<path d="M42.0303 79.2218C42.0303 79.2218 44.1544 82.0448 46.3337 79.2147C48.513 76.3847 50.5948 70.0097 50.5948 70.0097" stroke="#050505" stroke-miterlimit="10"/>
<path d="M15.3345 46.61C15.3345 46.61 17.5238 48.0016 20.7507 46.61" stroke="#050505" stroke-miterlimit="10"/>
<path d="M35.061 44.1056C35.061 44.1056 37.0777 45.7756 40.5647 44.1056" stroke="#050505" stroke-miterlimit="10"/>
<path d="M15.811 305.158L87.9863 299.477L100.371 325.574H17.8417L15.811 305.158Z" fill="#197278"/>
<path d="M16.3103 305.121H7.52783L14.2192 292.586L16.3103 305.121Z" fill="#050505"/>
<path d="M7.37305 275.903C7.37305 275.903 13.3827 275.752 16.3102 281.671" stroke="#050505" stroke-miterlimit="10"/>
<path d="M17.4897 253.128C17.4897 253.128 20.0743 258.454 21.3289 265.509" stroke="#050505" stroke-miterlimit="10"/>
<path d="M35.0609 258.445C35.0609 258.445 28.2223 271.728 30.2122 275.902" stroke="#050505" stroke-miterlimit="10"/>
<path d="M26.6274 292.586C26.6274 292.586 31.9103 295.149 32.4556 299.477" stroke="#050505" stroke-miterlimit="10"/>
<path d="M44.285 275.902C44.285 275.902 43.4699 286.436 43.2729 290.352" stroke="#050505" stroke-miterlimit="10"/>
<path d="M10.0371 237.051C10.0371 237.051 15.7419 242.08 17.4896 244.382" stroke="#050505" stroke-miterlimit="10"/>
<path d="M10.0371 259.764C10.0371 259.764 15.0556 265.885 16.3103 268.807" stroke="#050505" stroke-miterlimit="10"/>
<path d="M32.4552 240.717C32.4552 240.717 29.3897 251.222 29.5411 253.127" stroke="#050505" stroke-miterlimit="10"/>
<path d="M131.816 207.985C132.021 201.008 132.092 195.873 131.979 193.577C131.958 193.184 131.937 192.774 131.916 192.352C131.691 187.994 131.339 182.131 131.042 175.946C130.348 161.505 129.938 145.316 132.034 142.476C135.112 138.303 152.852 133.882 154.592 127.404C156.331 120.926 153.551 98.2963 157.377 85.6119C161.203 72.9234 167.464 72.8189 169.204 74.9643C170.943 77.1055 169.204 92.4162 169.204 106.677C169.204 120.942 168.158 132.774 168.158 132.774C168.158 132.774 171.638 135.989 173.03 127.425C174.423 118.86 175.464 88.5896 178.597 80.2421C181.729 71.8904 186.597 72.2125 186.948 85.6203C187.296 99.0282 183.816 142.518 183.816 142.518C183.816 142.518 183.469 170.697 184.511 178.697C184.987 182.34 185.401 195.187 185.774 210.009C186.217 227.753 186.606 248.334 186.97 259.328C187.643 279.511 192.855 325.573 192.855 325.573H126.461C126.461 325.573 129.905 259.784 131.386 220.581C131.561 215.96 131.707 211.707 131.816 207.985Z" fill="#197278"/>
<path d="M185.774 210.009L137.893 232.969L131.385 220.582C131.561 215.96 131.707 211.707 131.816 207.985L185.774 210.009Z" fill="#050505"/>
<path d="M136.067 132.86C139.009 131.728 142.329 135.73 143.633 142.776C144.938 149.821 148.069 166.259 142.329 168.607C136.588 170.956 133.718 157.909 132.675 147.733C131.63 137.557 132.675 134.165 136.067 132.86Z" fill="#197278"/>
<path d="M146.109 120.287C149.267 119.147 152.711 123.483 153.941 131.013C155.171 138.542 158.134 156.113 151.97 158.484C145.805 160.855 143.044 146.901 142.163 136.044C141.28 125.187 142.468 121.599 146.109 120.287Z" fill="#197278"/>
<path d="M145.66 158.751C145.728 163.49 144.961 167.53 142.329 168.607C136.588 170.955 133.718 157.909 132.675 147.733" stroke="#050505" stroke-miterlimit="10"/>
<path d="M153.942 131.013C155.172 138.543 158.134 156.114 151.97 158.485C145.805 160.856 143.044 146.901 142.163 136.044" stroke="#050505" stroke-miterlimit="10"/>
<path d="M199.16 325.574H116.194L118.884 273.87L120.152 248.104L147.294 246.744H147.302L188.337 244.925C188.337 244.925 188.784 248.91 189.453 254.539L189.838 257.75C191.139 268.531 193.008 283.263 194.255 289.913C196.342 301.046 199.16 325.574 199.16 325.574Z" fill="#265443"/>
<path d="M189.839 257.773L119.271 266.023L120.152 248.104L147.294 246.744H147.302L189.454 254.493L189.839 257.773Z" fill="#050505"/>
<path d="M113.192 218.357C110.757 223.227 113.54 227.055 116.323 231.229C119.106 235.404 116.323 238.187 116.323 238.187C116.323 238.187 107.277 247.929 107.277 253.147C107.277 258.366 119.814 254.938 119.814 254.938C119.814 254.938 153.897 252.794 161.899 249.32C169.9 245.845 194.254 254.539 194.254 254.539C194.254 254.539 191.681 249.146 196.098 245.058C200.515 240.971 192.861 232.969 192.861 232.969C192.861 232.969 196.899 221.487 196.098 220.096C195.297 218.705 192.861 210.007 192.861 210.007C192.861 210.007 157.026 212.791 146.764 214.183C136.501 215.574 113.192 218.357 113.192 218.357Z" fill="#265443"/>
<path d="M133.022 237.839C135.712 237.839 137.893 235.659 137.893 232.969C137.893 230.279 135.712 228.099 133.022 228.099C130.332 228.099 128.152 230.279 128.152 232.969C128.152 235.659 130.332 237.839 133.022 237.839Z" stroke="#050505" stroke-miterlimit="10"/>
<path d="M179.412 256.043L183.614 325.574" stroke="#050505" stroke-miterlimit="10"/>
<path d="M112.305 221.28L192.861 214.543" stroke="#050505" stroke-miterlimit="10"/>
<path d="M164.942 177.045C164.942 177.045 159.768 165.604 163.594 156.907C167.421 148.21 171.639 145.119 171.639 145.119H155.114C155.114 145.119 144.851 140.774 153.201 138.339C161.55 135.903 184.511 132.078 192.861 138.34C201.211 144.602 191.493 182.471 185.219 191.196C178.945 199.92 164.942 177.045 164.942 177.045Z" fill="#197278"/>
<path d="M164.942 177.045C164.942 177.045 159.767 165.709 163.594 157.011C167.421 148.315 171.639 145.328 171.639 145.328H155.113C155.113 145.328 144.851 140.879 153.2 138.443C157.078 137.312 164.106 135.87 171.358 135.277" stroke="#050505" stroke-miterlimit="10"/>
<path d="M155.741 103.613C155.741 103.613 160.036 106.453 163.939 105.154" stroke="#050505" stroke-miterlimit="10"/>
<path d="M157.248 106.923C157.248 106.923 157.35 108.875 160.784 108.038" stroke="#050505" stroke-miterlimit="10"/>
<path d="M180.389 106.923C180.389 106.923 182.803 106.854 186.336 105.495" stroke="#050505" stroke-miterlimit="10"/>
<path d="M180.389 109.51C180.389 109.51 180.576 110.167 183.362 109.51" stroke="#050505" stroke-miterlimit="10"/>
<path d="M206.202 325.574C206.202 325.574 218.245 273.087 223.587 257.421C228.927 241.756 242.456 200.855 244.236 194.446C246.015 188.038 247.796 168.12 249.22 157.795C250.645 147.471 253.848 124.339 251.712 117.219C249.576 110.099 237.471 65.9559 235.335 58.8355C233.199 51.7146 231.419 42.8172 235.691 42.4613C239.964 42.105 244.948 57.7716 247.084 63.8239C249.22 69.8763 261.326 103.343 262.393 107.616L267.378 105.836C267.378 105.836 259.901 67.0295 258.833 57.4165C257.765 47.8035 257.053 37.4791 260.257 37.4791C263.461 37.4791 266.665 57.4165 268.802 65.2492C270.938 73.0818 280.194 107.616 280.194 107.616C280.194 107.616 304.048 121.857 303.336 135.742C302.624 149.627 295.859 167.785 295.859 172.77C295.859 177.753 288.383 230.778 288.383 230.778L274.444 325.574H206.202Z" fill="#C44536"/>
<path d="M292.702 325.574L196.619 325.574C196.619 325.574 201.566 308.833 200.855 300.289C200.144 291.744 201.211 283.953 206.196 281.816C211.181 279.679 218.658 272.938 216.877 267.597C215.095 262.256 207.262 254.076 211.536 246.954C215.806 239.836 219.369 236.993 227.198 239.129C228.001 239.351 229.247 239.715 230.832 240.196C244.675 244.39 284.522 257.297 284.522 257.297C284.522 257.297 292.25 265.774 292.681 271.666C292.769 272.816 292.577 273.866 291.995 274.736C288.436 280.077 283.451 283.2 285.588 288.541C287.725 293.877 297.328 307.699 292.702 325.574Z" fill="#E09F3E"/>
<path fill-rule="evenodd" clip-rule="evenodd" d="M230.375 237.388L229.945 237.182L229.719 237.602L214.806 265.282L209.052 263.886L208.816 264.858L214.316 266.192L210.757 272.798L211.637 273.272L215.321 266.436L236.962 271.683L231.691 292.265L193.952 287.329L193.418 287.259L193.388 287.797L192.362 306.102L192.335 306.59L192.822 306.629L227.311 309.369L223.162 325.574H224.194L228.323 309.45L250.548 311.216L247.13 325.574H248.158L251.556 311.296L275.566 313.204L274.146 325.574H275.152L276.563 313.283L298.77 315.047L295.386 325.574H296.436L299.916 314.752L300.109 314.151L299.479 314.101L276.677 312.289L278.162 299.352L295.402 301.608L295.967 301.681V301.112V285.356V284.962L295.584 284.87L280.251 281.151L283.404 253.675L283.45 253.272L283.065 253.144L266.257 247.558L265.739 247.386L265.613 247.917L258.933 275.982L238.182 270.95L244.883 244.782L244.985 244.384L244.614 244.206L230.375 237.388ZM237.21 270.714L215.811 265.525L230.373 238.496L243.812 244.931L237.21 270.714ZM232.69 292.396L237.934 271.919L258.702 276.955L254.352 295.23L232.69 292.396ZM255.349 295.36L259.674 277.191L279.156 281.915L277.284 298.229L255.349 295.36ZM282.364 253.964L279.271 280.914L259.905 276.218L266.46 248.679L282.364 253.964ZM278.276 298.359L280.136 282.153L294.967 285.749V300.542L278.276 298.359ZM255.116 296.338L277.17 299.223L275.68 312.21L251.791 310.311L255.116 296.338ZM254.12 296.208L250.782 310.231L228.575 308.467L232.44 293.372L254.12 296.208ZM231.441 293.241L227.563 308.386L193.388 305.671L194.356 288.39L231.441 293.241Z" fill="#050505"/>
<path d="M292.627 271.879C290.364 272.494 287.633 272.808 284.384 272.54C272.674 271.574 224.295 241.128 224.295 241.128L230.778 240.408C244.62 244.603 284.468 257.51 284.468 257.51C284.468 257.51 292.196 265.986 292.627 271.879Z" fill="#050505"/>
<path d="M224.297 241.127C224.297 241.127 264.528 263.2 285.534 264.268L293.892 214.424C293.892 214.424 293.122 209.084 289.15 208.728C285.178 208.371 243.51 196.857 243.51 196.857C243.51 196.857 239.963 198.047 238.538 202.319C237.114 206.592 224.297 241.127 224.297 241.127Z" fill="#E09F3E"/>
<path d="M293.86 112.653C293.86 112.653 297.339 103.118 303.805 105.552C310.272 107.987 313.507 113.336 316.669 117.507C319.829 121.679 320.753 130.157 319.39 132.317C318.027 134.476 315.366 131.946 312.36 125.174C309.354 118.401 306.014 119.323 304.136 118.598C302.258 117.872 299.225 119.383 299.225 119.383L293.86 112.653Z" fill="#C44536"/>
<path d="M276.099 109.046C276.099 109.046 280.808 97.0913 288.914 100.379C297.02 103.666 300.943 110.541 304.81 115.92C308.676 121.3 309.573 132.06 307.779 134.75C305.986 137.439 302.699 134.152 299.112 125.485C295.525 116.817 291.269 117.877 288.914 116.899C286.559 115.92 282.674 117.735 282.674 117.735L276.099 109.046Z" fill="#C44536"/>
<path d="M248.196 166.051C248.196 166.051 243.879 153.899 239.25 147.135C234.622 140.372 231.774 130.402 236.046 126.13C240.319 121.857 260.461 104.169 266.945 103.579C273.429 102.989 288.026 106.192 289.094 108.329C290.163 110.465 275.565 115.093 270.225 115.449C264.884 115.805 260.969 127.349 259.188 130.478C257.408 133.606 270.937 140.371 273.429 151.764C275.921 163.156 268.178 172.506 248.196 166.051Z" fill="#C44536"/>
<path d="M273.429 151.764C270.937 140.371 257.408 133.607 259.188 130.478C260.969 127.35 264.884 115.805 270.225 115.449C275.565 115.093 290.163 110.465 289.095 108.329C288.026 106.193 273.429 102.989 266.945 103.579C266.945 103.579 255.201 109.806 250.8 113.37" stroke="#F7F8F9" stroke-miterlimit="10"/>
<path d="M235.777 210.007C235.777 210.007 277.797 227.853 292.382 228.098L290.773 233.025C290.773 233.025 248.836 224.618 233.948 214.124L235.777 210.007Z" fill="white"/>
<path d="M231.551 221.516C231.551 221.516 267.921 242.018 289.535 240.408L288.473 246.744C288.473 246.744 252.543 240.968 230.406 224.618L231.551 221.516Z" fill="white"/>
<path d="M292.627 117.898C292.627 117.898 299.843 125.658 302.778 132.67" stroke="#F7F8F9" stroke-miterlimit="10"/>
<path d="M298.642 107.585L306.559 119.153" stroke="#F7F8F9" stroke-miterlimit="10"/>
</g>
</svg>
