<svg width="320" height="326" viewBox="0 0 320 326" fill="none" xmlns="http://www.w3.org/2000/svg">
<g opacity="0.6">
<path d="M0 325.516V302.558L17.385 290.294L86.9298 295.653L100.371 325.516H0Z" fill="#197278"/>
<path d="M46.3334 79.1565L42.7869 82.838L8.93317 118.021C8.93317 118.021 8.15112 106.279 7.37325 92.4549C6.60374 78.7558 5.84259 63.0072 5.84719 54.609C5.85932 37.7376 13.0321 6.79979 17.3856 0.918589C21.7392 -4.96261 22.2536 18.8168 20.7146 31.8564C19.3805 43.2056 23.0859 72.3612 25.7582 83.1093C26.1555 84.7121 26.5323 85.9059 26.8627 86.5695C26.8627 86.5695 26.879 85.0544 26.9171 82.5207C27.0839 71.2467 27.6573 39.7871 28.9119 31.8564C30.451 22.1393 34.5494 3.9865 38.1381 3.73188C41.7217 3.47309 40.6971 34.1563 40.4424 41.0602C40.2584 46.0648 43.4368 63.8336 45.2017 73.2294C45.4652 74.6485 45.6989 75.8799 45.8834 76.8441C46.1661 78.3008 46.3334 79.1565 46.3334 79.1565Z" fill="#E09F3E"/>
<path d="M96.5193 325.512H18.2701C18.2701 325.512 11.7266 269.839 14.0937 236.993C14.2234 235.186 14.3781 233.449 14.5663 231.796C14.7127 230.511 14.8544 229.254 14.997 228.023C15.9334 219.959 16.7954 213.039 17.4896 206.966C19.2921 191.108 19.9152 181.036 17.5147 171.457C14.0561 157.649 27.3761 87.0834 55.5551 88.106C83.7342 89.1287 88.3471 117.253 82.1952 135.661C76.0475 154.068 65.2911 170.943 65.8013 187.31C65.8724 189.497 66.3329 193.367 67.0982 198.454C67.621 201.902 68.2813 205.913 69.0554 210.342C75.6795 248.259 90.5556 316.192 96.5193 325.512Z" fill="#E09F3E"/>
<path d="M63.1499 232.518L14.0938 236.993C14.2234 235.186 14.3781 233.449 14.5663 231.796C14.7127 230.511 14.8545 229.254 14.9971 228.023L63.1499 232.518Z" fill="#050505"/>
<path d="M69.0552 210.342L17.4897 206.965L67.0979 198.454C67.6207 201.902 68.2815 205.913 69.0552 210.342Z" fill="#050505"/>
<path d="M45.882 76.8442L42.7872 82.8381L8.93345 118.021C8.93345 118.021 8.15141 106.279 7.37354 92.455L25.7581 83.1094C26.1554 84.7122 26.5322 85.906 26.8626 86.5696C26.8626 86.5696 26.8789 85.0545 26.9169 82.5208L45.2011 73.2294C45.4638 74.6486 45.698 75.88 45.882 76.8442Z" fill="#050505"/>
<path d="M35.0612 167.109C42.7466 164.297 59.1418 154.325 51.7127 134.383C44.2832 114.44 40.0216 113.928 44.33 107.281C48.6384 100.633 57.5346 74.5538 53.5988 69.9515C49.6634 65.3493 36.8545 88.3606 28.9131 94.7523C20.9721 101.144 5.3452 116.485 5.85751 123.644C6.36982 130.803 18.5941 174.52 18.5941 174.52L35.0612 167.109Z" fill="#E09F3E"/>
<path d="M61.9688 69.4402C68.7865 69.2954 74.9045 77.9498 74.6105 91.7407C74.3169 105.532 70.7889 119.324 66.6725 120.791C62.5569 122.258 60.2638 89.8658 60.2638 89.8658C60.2638 89.8658 49.9147 92.3276 46.3867 96.7291C46.3863 96.7291 48.1503 69.7336 61.9688 69.4402Z" fill="#E09F3E"/>
<path d="M73.1406 77.6567C79.9587 77.5118 86.0767 86.1663 85.7826 99.9572C85.4886 113.749 81.9602 127.54 77.8446 129.007C73.729 130.474 71.4359 98.0823 71.4359 98.0823C71.4359 98.0823 67.0062 96.4481 63.4786 100.85C63.4782 100.85 59.3224 77.9497 73.1406 77.6567Z" fill="#E09F3E"/>
<path d="M84.2196 114.86C82.7517 122.378 80.4122 128.091 77.8444 129.007C73.7283 130.474 72.4888 109.24 72.4888 109.24" stroke="#050505" stroke-miterlimit="10"/>
<path d="M35.061 167.109C42.7465 164.297 59.1416 154.325 51.7125 134.383C44.283 114.44 40.0214 113.928 44.3298 107.281C48.6383 100.633 57.5344 74.5538 53.5987 69.9516" stroke="#050505" stroke-miterlimit="10"/>
<path d="M72.1764 77.7219C73.7902 81.3833 74.7291 86.1384 74.6099 91.7412C74.3163 105.533 70.7883 119.324 66.6719 120.791C62.5562 122.258 60.2632 89.8662 60.2632 89.8662" stroke="#050505" stroke-miterlimit="10"/>
<path d="M14.2192 197.535V207.251L69.8413 202.393V189.865L14.2192 197.535Z" fill="#5CC4CB"/>
<path d="M14.0544 214.07L12.3477 230.433L74.6193 234.182L76.2206 214.069C76.221 214.07 20.5429 214.752 14.0544 214.07Z" fill="white"/>
<path d="M14.0549 214.487L13.5781 218.851L76.1291 220.794L76.6397 213.652L14.0549 214.487Z" fill="#C44536"/>
<path d="M13.0059 224.126L75.0044 229.352L74.6197 234.183L12.3477 230.851L13.0059 224.126Z" fill="#197278"/>
<path d="M14.0938 200.713L69.8413 194.034" stroke="#050505" stroke-miterlimit="10"/>
<path d="M71.7934 111.897C71.7934 111.897 68.5272 109.719 67.4419 113.893C66.3567 118.067 66.672 120.791 66.672 120.791" stroke="#050505" stroke-miterlimit="10"/>
<path d="M78.3539 116.06C79.7813 115.204 81.1509 122.519 78.3539 126.693C78.3539 126.693 74.7385 118.227 78.3539 116.06Z" stroke="#050505" stroke-miterlimit="10"/>
<path d="M42.0303 79.1637C42.0303 79.1637 44.1544 81.9866 46.3337 79.1566C48.513 76.3266 50.5948 69.9516 50.5948 69.9516" stroke="#050505" stroke-miterlimit="10"/>
<path d="M15.3345 46.5519C15.3345 46.5519 17.5238 47.9435 20.7507 46.5519" stroke="#050505" stroke-miterlimit="10"/>
<path d="M35.061 44.0475C35.061 44.0475 37.0777 45.7175 40.5647 44.0475" stroke="#050505" stroke-miterlimit="10"/>
<path d="M15.811 305.1L87.9863 299.419L100.371 325.516H17.8417L15.811 305.1Z" fill="#197278"/>
<path d="M16.3103 305.063H7.52783L14.2192 292.528L16.3103 305.063Z" fill="#050505"/>
<path d="M10.373 277.845C10.373 277.845 14.4077 277.743 16.373 281.717" stroke="#313131" stroke-opacity="0.3" stroke-width="0.5" stroke-miterlimit="10"/>
<path d="M17.4897 253.07C17.4897 253.07 19.1597 256.511 19.9704 261.07" stroke="#313131" stroke-opacity="0.3" stroke-width="0.5" stroke-miterlimit="10"/>
<path d="M27.536 264.387C27.536 264.387 24.0104 271.235 25.0363 273.387" stroke="#313131" stroke-opacity="0.3" stroke-width="0.5" stroke-miterlimit="10"/>
<path d="M14.6274 295.528C14.6274 295.528 17.6937 297.016 18.0103 299.528" stroke="#313131" stroke-opacity="0.3" stroke-width="0.5" stroke-miterlimit="10"/>
<path d="M19.9033 283.844C19.9033 283.844 19.3956 290.405 19.2729 292.844" stroke="#313131" stroke-opacity="0.3" stroke-width="0.5" stroke-miterlimit="10"/>
<path d="M12.0371 239.993C12.0371 239.993 15.0991 242.692 16.0371 243.928" stroke="#313131" stroke-opacity="0.3" stroke-width="0.5" stroke-miterlimit="10"/>
<path d="M10.0371 259.706C10.0371 259.706 14.4766 265.121 15.5864 267.706" stroke="#313131" stroke-opacity="0.3" stroke-width="0.5" stroke-miterlimit="10"/>
<path d="M25.1824 241.659C25.1824 241.659 23.4533 247.584 23.5387 248.659" stroke="#313131" stroke-opacity="0.3" stroke-width="0.5" stroke-miterlimit="10"/>
<path d="M131.816 207.927C132.021 200.95 132.092 195.815 131.979 193.519C131.958 193.126 131.937 192.716 131.916 192.294C131.691 187.936 131.339 182.073 131.042 175.887C130.348 161.447 129.938 145.258 132.034 142.418C135.112 138.245 152.852 133.824 154.592 127.346C156.331 120.868 153.551 98.2382 157.377 85.5538C161.203 72.8653 167.464 72.7607 169.204 74.9062C170.943 77.0474 169.204 92.3581 169.204 106.619C169.204 120.884 168.158 132.715 168.158 132.715C168.158 132.715 171.638 135.931 173.03 127.367C174.423 118.802 175.464 88.5315 178.597 80.184C181.729 71.8323 186.597 72.1543 186.948 85.5622C187.296 98.97 183.816 142.46 183.816 142.46C183.816 142.46 183.469 170.639 184.511 178.639C184.987 182.282 185.401 195.129 185.774 209.951C186.217 227.695 186.606 248.276 186.97 259.27C187.643 279.453 192.855 325.515 192.855 325.515H126.461C126.461 325.515 129.905 259.726 131.386 220.523C131.561 215.902 131.707 211.649 131.816 207.927Z" fill="#197278"/>
<path d="M185.774 209.951L137.893 232.91L131.385 220.523C131.561 215.902 131.707 211.649 131.816 207.927L185.774 209.951Z" fill="#050505"/>
<path d="M136.067 132.802C139.009 131.67 142.329 135.672 143.633 142.717C144.938 149.763 148.069 166.201 142.329 168.549C136.588 170.898 133.718 157.851 132.675 147.675C131.63 137.499 132.675 134.106 136.067 132.802Z" fill="#197278"/>
<path d="M146.109 120.228C149.267 119.089 152.711 123.425 153.941 130.955C155.171 138.484 158.134 156.055 151.97 158.426C145.805 160.797 143.044 146.843 142.163 135.986C141.28 125.129 142.468 121.541 146.109 120.228Z" fill="#197278"/>
<path d="M145.66 158.693C145.728 163.432 144.961 167.472 142.329 168.549C136.588 170.897 133.718 157.851 132.675 147.675" stroke="#050505" stroke-miterlimit="10"/>
<path d="M153.942 130.955C155.172 138.485 158.134 156.056 151.97 158.427C145.805 160.798 143.044 146.843 142.163 135.986" stroke="#050505" stroke-miterlimit="10"/>
<path d="M199.16 325.515H116.194L118.884 273.811L120.152 248.045L147.294 246.686H147.302L188.337 244.867C188.337 244.867 188.784 248.852 189.453 254.481L189.838 257.692C191.139 268.473 193.008 283.205 194.255 289.855C196.342 300.988 199.16 325.515 199.16 325.515Z" fill="#265443"/>
<path d="M189.839 257.715L119.271 265.965L120.152 248.046L147.294 246.686H147.302L189.454 254.435L189.839 257.715Z" fill="#050505"/>
<path d="M113.192 218.299C110.757 223.169 113.54 226.997 116.323 231.171C119.106 235.346 116.323 238.129 116.323 238.129C116.323 238.129 107.277 247.871 107.277 253.089C107.277 258.308 119.814 254.88 119.814 254.88C119.814 254.88 153.897 252.736 161.899 249.262C169.9 245.787 194.254 254.481 194.254 254.481C194.254 254.481 191.681 249.088 196.098 245C200.515 240.913 192.861 232.91 192.861 232.91C192.861 232.91 196.899 221.429 196.098 220.038C195.297 218.647 192.861 209.949 192.861 209.949C192.861 209.949 157.026 212.733 146.764 214.124C136.501 215.516 113.192 218.299 113.192 218.299Z" fill="#265443"/>
<path d="M133.022 237.781C135.712 237.781 137.893 235.601 137.893 232.911C137.893 230.221 135.712 228.04 133.022 228.04C130.332 228.04 128.152 230.221 128.152 232.911C128.152 235.601 130.332 237.781 133.022 237.781Z" stroke="#050505" stroke-miterlimit="10"/>
<path d="M179.412 255.985L183.614 325.515" stroke="#050505" stroke-miterlimit="10"/>
<path d="M112.305 221.222L192.861 214.485" stroke="#050505" stroke-miterlimit="10"/>
<path d="M164.942 176.986C164.942 176.986 159.768 165.546 163.594 156.849C167.421 148.152 171.639 145.061 171.639 145.061H155.114C155.114 145.061 144.851 140.716 153.201 138.281C161.55 135.845 184.511 132.02 192.861 138.282C201.211 144.544 191.493 182.413 185.219 191.137C178.945 199.862 164.942 176.986 164.942 176.986Z" fill="#197278"/>
<path d="M164.942 176.986C164.942 176.986 159.767 165.651 163.594 156.953C167.421 148.257 171.639 145.27 171.639 145.27H155.113C155.113 145.27 144.851 140.821 153.2 138.385C157.078 137.254 164.106 135.812 171.358 135.219" stroke="#050505" stroke-miterlimit="10"/>
<path d="M155.741 103.555C155.741 103.555 160.036 106.395 163.939 105.096" stroke="#050505" stroke-miterlimit="10"/>
<path d="M157.248 106.865C157.248 106.865 157.35 108.816 160.784 107.98" stroke="#050505" stroke-miterlimit="10"/>
<path d="M180.389 106.865C180.389 106.865 182.803 106.796 186.336 105.436" stroke="#050505" stroke-miterlimit="10"/>
<path d="M180.389 109.452C180.389 109.452 180.576 110.109 183.362 109.452" stroke="#050505" stroke-miterlimit="10"/>
<path d="M206.202 325.515C206.202 325.515 218.245 273.029 223.587 257.363C228.927 241.698 242.456 200.796 244.236 194.388C246.015 187.979 247.796 168.062 249.22 157.737C250.645 147.413 253.848 124.281 251.712 117.16C249.576 110.04 237.471 65.8978 235.335 58.7774C233.199 51.6565 231.419 42.759 235.691 42.4032C239.964 42.0468 244.948 57.7134 247.084 63.7658C249.22 69.8181 261.326 103.285 262.393 107.557L267.378 105.778C267.378 105.778 259.901 66.9714 258.833 57.3584C257.765 47.7454 257.053 37.421 260.257 37.421C263.461 37.421 266.665 57.3584 268.802 65.191C270.938 73.0237 280.194 107.558 280.194 107.558C280.194 107.558 304.048 121.799 303.336 135.684C302.624 149.569 295.859 167.727 295.859 172.711C295.859 177.695 288.383 230.72 288.383 230.72L274.444 325.515H206.202Z" fill="#C44536"/>
<path d="M292.702 325.515L196.619 325.515C196.619 325.515 201.566 308.774 200.855 300.23C200.144 291.686 201.211 283.895 206.196 281.758C211.181 279.621 218.658 272.879 216.877 267.539C215.095 262.198 207.262 254.018 211.536 246.896C215.806 239.778 219.369 236.935 227.198 239.071C228.001 239.293 229.247 239.657 230.832 240.138C244.675 244.332 284.522 257.239 284.522 257.239C284.522 257.239 292.25 265.716 292.681 271.608C292.769 272.758 292.577 273.808 291.995 274.678C288.436 280.019 283.451 283.142 285.588 288.483C287.725 293.819 297.328 307.641 292.702 325.515Z" fill="#E09F3E"/>
<path fill-rule="evenodd" clip-rule="evenodd" d="M230.375 237.33L229.945 237.124L229.719 237.544L214.806 265.224L209.052 263.828L208.816 264.8L214.316 266.134L210.757 272.74L211.637 273.214L215.321 266.377L236.962 271.625L231.691 292.207L193.952 287.271L193.418 287.201L193.388 287.739L192.362 306.044L192.335 306.532L192.822 306.571L227.311 309.311L223.162 325.515H224.194L228.323 309.392L250.548 311.158L247.13 325.515H248.158L251.556 311.238L275.566 313.145L274.146 325.515H275.152L276.563 313.225L298.77 314.989L295.386 325.515H296.436L299.916 314.694L300.109 314.093L299.479 314.043L276.677 312.231L278.162 299.294L295.402 301.549L295.967 301.623V301.054V285.298V284.904L295.584 284.812L280.251 281.093L283.404 253.617L283.45 253.213L283.065 253.085L266.257 247.5L265.739 247.328L265.613 247.859L258.933 275.924L238.182 270.892L244.883 244.723L244.985 244.326L244.614 244.148L230.375 237.33ZM237.21 270.656L215.811 265.467L230.373 238.438L243.812 244.873L237.21 270.656ZM232.69 292.338L237.934 271.861L258.702 276.897L254.352 295.171L232.69 292.338ZM255.349 295.302L259.674 277.133L279.156 281.857L277.284 298.171L255.349 295.302ZM282.364 253.906L279.271 280.856L259.905 276.16L266.46 248.621L282.364 253.906ZM278.276 298.301L280.136 282.094L294.967 285.691V300.484L278.276 298.301ZM255.116 296.28L277.17 299.165L275.68 312.151L251.791 310.253L255.116 296.28ZM254.12 296.15L250.782 310.173L228.575 308.408L232.44 293.314L254.12 296.15ZM231.441 293.183L227.563 308.328L193.388 305.612L194.356 288.332L231.441 293.183Z" fill="#050505"/>
<path d="M292.627 271.821C290.364 272.436 287.633 272.75 284.384 272.481C272.674 271.515 224.295 241.07 224.295 241.07L230.778 240.35C244.62 244.545 284.468 257.451 284.468 257.451C284.468 257.451 292.196 265.928 292.627 271.821Z" fill="#050505"/>
<path d="M224.297 241.068C224.297 241.068 264.528 263.142 285.534 264.21L293.892 214.366C293.892 214.366 293.122 209.025 289.15 208.67C285.178 208.313 243.51 196.799 243.51 196.799C243.51 196.799 239.963 197.988 238.538 202.261C237.114 206.533 224.297 241.068 224.297 241.068Z" fill="#E09F3E"/>
<path d="M293.86 112.595C293.86 112.595 297.339 103.06 303.805 105.494C310.272 107.929 313.507 113.278 316.669 117.449C319.829 121.621 320.753 130.099 319.39 132.259C318.027 134.418 315.366 131.888 312.36 125.116C309.354 118.343 306.014 119.265 304.136 118.54C302.258 117.814 299.225 119.325 299.225 119.325L293.86 112.595Z" fill="#C44536"/>
<path d="M276.099 108.988C276.099 108.988 280.808 97.0332 288.914 100.321C297.02 103.608 300.943 110.482 304.81 115.862C308.676 121.242 309.573 132.002 307.779 134.691C305.986 137.381 302.699 134.093 299.112 125.426C295.525 116.759 291.269 117.819 288.914 116.84C286.559 115.862 282.674 117.677 282.674 117.677L276.099 108.988Z" fill="#C44536"/>
<path d="M248.196 165.993C248.196 165.993 243.879 153.841 239.25 147.077C234.622 140.313 231.774 130.344 236.046 126.072C240.319 121.799 260.461 104.111 266.945 103.521C273.429 102.93 288.026 106.134 289.094 108.271C290.163 110.407 275.565 115.035 270.225 115.391C264.884 115.747 260.969 127.291 259.188 130.419C257.408 133.548 270.937 140.313 273.429 151.706C275.921 163.098 268.178 172.448 248.196 165.993Z" fill="#C44536"/>
<path d="M273.429 151.706C270.937 140.313 257.408 133.549 259.188 130.42C260.969 127.292 264.884 115.747 270.225 115.391C275.565 115.035 290.163 110.407 289.095 108.271C288.026 106.135 273.429 102.93 266.945 103.521C266.945 103.521 255.201 109.748 250.8 113.312" stroke="#F7F8F9" stroke-miterlimit="10"/>
<path d="M235.777 209.949C235.777 209.949 277.797 227.795 292.382 228.04L290.773 232.967C290.773 232.967 248.836 224.56 233.948 214.066L235.777 209.949Z" fill="white"/>
<path d="M231.551 221.458C231.551 221.458 267.921 241.96 289.535 240.35L288.473 246.686C288.473 246.686 252.543 240.91 230.406 224.56L231.551 221.458Z" fill="white"/>
<path d="M292.627 117.84C292.627 117.84 299.843 125.599 302.778 132.612" stroke="#F7F8F9" stroke-miterlimit="10"/>
<path d="M298.642 107.527L306.559 119.095" stroke="#F7F8F9" stroke-miterlimit="10"/>
</g>
</svg>
